<?xml version="1.0" standalone="no"?>
<!DOCTYPE svg PUBLIC "-//W3C//DTD SVG 20010904//EN"
 "http://www.w3.org/TR/2001/REC-SVG-20010904/DTD/svg10.dtd">
<svg version="1.0" xmlns="http://www.w3.org/2000/svg"
 width="500.000000pt" height="500.000000pt" viewBox="0 0 500.000000 500.000000"
 preserveAspectRatio="xMidYMid meet">

<g transform="translate(0.000000,500.000000) scale(0.100000,-0.100000)"
fill="#000000" stroke="none">
<path d="M2320 4994 c-196 -18 -407 -58 -569 -110 -932 -295 -1596 -1094
-1732 -2084 -20 -142 -17 -498 5 -640 60 -397 184 -724 391 -1035 407 -611
1042 -1004 1785 -1106 142 -20 498 -17 640 5 397 60 724 184 1035 391 611 407
1004 1042 1106 1785 20 142 17 498 -5 640 -23 151 -57 302 -96 423 -292 910
-1084 1573 -2045 1713 -99 14 -428 26 -515 18z m304 -803 c3 -4 38 -11 79 -14
156 -13 331 -68 477 -148 52 -29 105 -57 117 -63 13 -6 23 -14 23 -19 0 -4 19
-20 43 -35 100 -63 266 -235 318 -329 11 -21 31 -51 44 -68 33 -44 79 -141
105 -220 12 -38 26 -75 31 -81 11 -13 39 -131 39 -164 0 -25 -3 -26 -117 -44
-65 -10 -122 -21 -128 -25 -11 -6 -167 -34 -460 -81 -104 -17 -199 -35 -210
-40 -16 -7 -447 -79 -640 -107 -22 -3 -44 -9 -50 -13 -5 -4 -35 -13 -65 -20
-79 -19 -227 -67 -285 -94 -27 -13 -99 -45 -159 -71 -61 -27 -118 -57 -128
-67 -10 -10 -24 -18 -32 -18 -8 0 -71 -38 -141 -85 -69 -47 -129 -85 -132 -85
-4 0 -37 -27 -74 -60 -64 -57 -69 -60 -73 -38 -3 13 -17 100 -32 193 -14 94
-31 181 -38 194 -15 33 -15 402 0 422 6 8 15 35 18 62 23 158 125 392 234 536
147 196 311 334 513 433 73 36 168 75 209 87 91 25 232 51 282 51 20 0 40 5
43 10 7 12 182 14 189 1z m-1339 -486 c-35 -47 -80 -118 -100 -157 -21 -40
-42 -79 -48 -86 -20 -25 -54 -108 -86 -212 -18 -58 -37 -114 -42 -125 -21 -52
-49 -216 -49 -292 0 -29 -4 -53 -9 -53 -4 0 -47 40 -95 90 -87 90 -152 180
-175 242 -7 18 -18 44 -25 57 -14 30 -14 202 1 233 6 13 25 55 43 93 65 138
204 245 355 273 93 18 104 19 202 21 l92 1 -64 -85z m2312 -957 c15 -6 30 -12
33 -13 5 -1 72 -38 111 -61 27 -16 59 -46 59 -56 0 -4 15 -29 34 -55 53 -74
76 -156 76 -266 0 -111 -18 -174 -78 -263 -44 -66 -64 -82 -162 -130 -46 -23
-101 -38 -190 -53 -69 -12 -128 -21 -131 -21 -8 0 29 -221 41 -242 16 -28 13
-33 -27 -50 -40 -17 -172 -52 -235 -63 -43 -7 -38 -19 -63 140 -9 55 -20 109
-25 120 -5 11 -16 63 -25 115 -62 379 -87 518 -95 535 -10 23 -52 266 -46 272
2 2 86 17 187 33 101 17 193 35 204 40 55 27 282 39 332 18z m-847 -174 c0
-24 33 -203 40 -219 8 -18 53 -271 97 -545 8 -52 19 -104 24 -115 13 -30 48
-239 40 -246 -8 -8 -175 -29 -232 -29 -25 0 -50 -5 -55 -10 -21 -21 -32 16
-64 205 -18 105 -36 194 -41 199 -5 6 -9 17 -9 27 0 14 -17 13 -167 -13 -196
-33 -199 -34 -186 -51 13 -17 48 -226 39 -235 -4 -4 -31 6 -59 21 -29 16 -78
42 -109 58 -32 17 -58 34 -58 40 0 5 -5 9 -10 9 -6 0 -35 16 -65 36 -55 37
-57 40 -70 129 -4 22 -10 49 -15 60 -10 20 -58 294 -67 375 l-5 45 69 31 c113
52 211 87 225 81 8 -3 19 -36 26 -83 15 -90 45 -258 47 -261 3 -6 251 38 267
47 10 6 28 10 40 10 48 0 49 6 22 165 -14 83 -30 160 -36 171 -5 12 -8 30 -6
40 4 21 32 28 188 48 133 17 130 17 130 10z m-1281 -717 c2 -6 18 -22 35 -36
17 -14 64 -57 106 -95 88 -81 310 -249 360 -272 19 -10 59 -32 88 -51 69 -44
303 -157 391 -188 82 -30 147 -32 366 -10 151 14 411 60 430 75 5 4 37 16 70
25 85 24 268 86 280 95 21 16 138 59 146 54 12 -7 12 -51 0 -58 -5 -4 -12 -25
-16 -49 -11 -67 -62 -269 -79 -308 -8 -20 -29 -50 -45 -67 -48 -47 -184 -107
-311 -137 -63 -15 -124 -31 -135 -36 -78 -33 -425 -61 -511 -40 -44 10 -127
47 -268 119 -27 13 -75 42 -107 63 -32 22 -61 39 -64 39 -11 0 -97 61 -175
124 -102 82 -287 263 -375 366 -80 95 -225 292 -225 306 0 5 -16 34 -36 64
-42 64 -104 184 -104 202 0 12 171 -165 179 -185z"/>
<path d="M3317 2452 c-80 -15 -88 -18 -83 -36 3 -12 10 -55 17 -96 6 -41 15
-79 19 -85 4 -5 11 -36 15 -69 l8 -58 55 6 c31 4 60 11 66 15 6 5 34 12 61 16
63 9 93 28 111 70 29 71 11 170 -41 222 -30 30 -39 33 -86 32 -30 -1 -94 -8
-142 -17z"/>
</g>
</svg>
