<?xml version="1.0" encoding="UTF-8"?>
<svg version="1.1" xmlns="http://www.w3.org/2000/svg" width="500" height="500">
<path d="M0 0 C17.19013014 15.87938879 28.59296222 36.03283792 35.35546875 58.28515625 C35.56727783 58.97536865 35.77908691 59.66558105 35.99731445 60.37670898 C37.2548188 64.77931367 37.49197396 68.66877836 37.41796875 73.22265625 C36.31662598 73.41786865 35.2152832 73.61308105 34.08056641 73.81420898 C28.73455681 74.76204879 23.38874067 75.710977 18.04296875 76.66015625 C17.04081329 76.83805695 16.03865784 77.01595764 15.00613403 77.19924927 C3.37627195 79.26446152 -8.25180991 81.33894103 -19.875 83.44140625 C-20.88368637 83.62370285 -21.89237274 83.80599945 -22.93162537 83.99382019 C-27.03654452 84.73580705 -31.14143532 85.47792503 -35.24569702 86.22354126 C-47.31590972 88.4158824 -59.39337599 90.54112844 -71.49609375 92.546875 C-73.82222519 92.93603463 -76.14831603 93.32543704 -78.47436523 93.71508789 C-82.85159316 94.44824666 -87.23132273 95.16227003 -91.61352539 95.86499023 C-132.79843858 102.65197125 -177.24574805 120.68853438 -207.58203125 150.22265625 C-210.48931044 147.31537706 -210.61318648 143.88679803 -211.30859375 139.97265625 C-211.46158936 139.13549576 -211.61458496 138.29833527 -211.7722168 137.43580627 C-212.26419192 134.70029788 -212.73859326 131.96228983 -213.20703125 129.22265625 C-213.36677429 128.29282928 -213.52651733 127.36300232 -213.69110107 126.40499878 C-220.16371516 88.14951222 -216.31166652 51.35823031 -193.33300781 19.00952148 C-171.80905536 -10.19905615 -141.27746329 -28.00751517 -105.58203125 -33.77734375 C-104.81246094 -33.90882812 -104.04289062 -34.0403125 -103.25 -34.17578125 C-65.32161215 -39.54232179 -28.02230571 -25.01949689 0 0 Z " fill="#000000" transform="translate(340.58203125,128.77734375)"/>
<path d="M0 0 C3.89047003 2.82943275 6.87473918 6.03284826 9.984375 9.65625 C16.25475872 16.94739386 22.59362132 23.85943877 30 30 C30.81210938 30.7115625 31.62421875 31.423125 32.4609375 32.15625 C51.93508635 48.95747646 73.97809613 61.87359376 97.3984375 72.375 C99.49202838 73.31961367 101.57091271 74.30174365 103.6015625 75.375 C127.3701133 87.1367571 169.39142166 73.40338485 192.875 65.625 C202.08309994 62.50755894 211.1187754 59.08639972 220.03515625 55.21484375 C223 54 223 54 225 54 C224.48484119 61.57839532 223.05920588 68.71036498 221.1875 76.0625 C220.8152832 77.59874023 220.8152832 77.59874023 220.43554688 79.16601562 C217.87952029 89.34459477 215.44033792 98.06612605 206.0390625 103.80859375 C184.6805481 113.99909776 159.24680156 119.23785521 135.625 119.4375 C134.79983887 119.44765137 133.97467773 119.45780273 133.12451172 119.46826172 C124.10154092 119.33781356 116.17834282 116.4436968 108.25 112.3125 C107.56736084 111.96219727 106.88472168 111.61189453 106.18139648 111.25097656 C104.11364104 110.18056394 102.05546461 109.0938026 100 108 C99.4013916 107.68401855 98.8027832 107.36803711 98.18603516 107.04248047 C69.687845 91.85578608 43.90240017 69.12769685 25 43 C24.00785268 41.66403266 23.01566338 40.32809649 22.0234375 38.9921875 C14.7937184 29.12546443 8.65503614 18.83951535 3 8 C2.41347656 6.87980469 1.82695312 5.75960938 1.22265625 4.60546875 C0 2 0 2 0 0 Z " fill="#000000" transform="translate(139,291)"/>
<path d="M0 0 C8.35789668 6.73973247 13.65931191 15.91966339 15.703125 26.42578125 C17.0535811 39.57968729 16.05274116 50.82564862 8.078125 61.73828125 C-2.95424181 74.60937586 -19.59256061 76.24944662 -35.296875 79.42578125 C-35.17570312 80.07651611 -35.05453125 80.72725098 -34.9296875 81.39770508 C-34.38265407 84.34405869 -33.83971879 87.29115298 -33.296875 90.23828125 C-33.10609375 91.26244141 -32.9153125 92.28660156 -32.71875 93.34179688 C-32.53828125 94.32470703 -32.3578125 95.30761719 -32.171875 96.3203125 C-31.92050781 97.67926636 -31.92050781 97.67926636 -31.6640625 99.06567383 C-31.296875 101.42578125 -31.296875 101.42578125 -31.296875 104.42578125 C-40.58405143 107.51364956 -49.56373162 110.11029579 -59.296875 111.42578125 C-62.1140694 100.01065804 -64.2046352 88.48091323 -66.30859375 76.91796875 C-66.68526347 74.85861858 -67.06212323 72.79930316 -67.43916321 70.74002075 C-68.22350589 66.45235726 -69.00572655 62.1643138 -69.78637695 57.87597656 C-70.78790272 52.37516128 -71.79455722 46.87529911 -72.80273724 41.3757 C-73.57932352 37.1365378 -74.35335798 32.89691283 -75.12659645 28.65713882 C-75.49703839 26.62756599 -75.86824928 24.59813336 -76.2402401 22.56884384 C-76.75738564 19.7454148 -77.27112643 16.92138737 -77.78393555 14.09716797 C-77.93818497 13.2587587 -78.09243439 12.42034943 -78.25135803 11.55653381 C-78.80858807 8.47178227 -79.296875 5.56757817 -79.296875 2.42578125 C-72.1065829 0.96426642 -64.91185894 -0.47340789 -57.71337891 -1.89404297 C-54.59627695 -2.51461222 -51.4836608 -3.15404499 -48.37109375 -3.796875 C-31.60988978 -7.17288431 -14.96077266 -10.25372684 0 0 Z M-46.296875 22.42578125 C-44.95880988 32.50062448 -43.23962194 42.4530136 -41.296875 52.42578125 C-36.24811221 52.55624024 -31.63084878 52.12515709 -26.671875 51.17578125 C-25.40085937 50.94375 -24.12984375 50.71171875 -22.8203125 50.47265625 C-18.3340671 49.13971416 -15.40935202 47.27990961 -12.984375 43.23828125 C-11.37007016 36.63430692 -11.68830243 31.10749083 -15.109375 25.15625 C-16.9523067 22.47066203 -18.39929292 20.97115836 -21.296875 19.42578125 C-29.70385905 18.46104537 -38.0842 20.73286174 -46.296875 22.42578125 Z " fill="#000000" transform="translate(363.296875,232.57421875)"/>
<path d="M0 0 C0.79313146 4.22132361 1.58606165 8.442685 2.37890625 12.6640625 C2.50166679 13.31766943 2.62442734 13.97127636 2.7509079 14.64468956 C4.24071491 22.57740568 5.72887696 30.51042677 7.21362305 38.4440918 C7.41778194 39.53494599 7.41778194 39.53494599 7.62606525 40.64783764 C8.17453457 43.57851924 8.72298224 46.50920488 9.27124977 49.43992424 C10.78732753 57.54332714 12.30873325 65.6456508 13.84767151 73.74475098 C14.52298368 77.30284124 15.19288627 80.86193333 15.86129761 84.42132568 C16.16096655 86.00943931 16.46329491 87.59705353 16.76834106 89.18414307 C17.18175806 91.33639489 17.58617516 93.4901425 17.98828125 95.64453125 C18.21040283 96.81346924 18.43252441 97.98240723 18.66137695 99.18676758 C19 102 19 102 18 105 C13.73043826 105.53163419 9.45921258 106.04845787 5.1875 106.5625 C3.97255859 106.71396484 2.75761719 106.86542969 1.50585938 107.02148438 C0.34248047 107.16005859 -0.82089844 107.29863281 -2.01953125 107.44140625 C-3.62985229 107.63778687 -3.62985229 107.63778687 -5.27270508 107.83813477 C-8 108 -8 108 -11 107 C-11.31022095 105.34230591 -11.31022095 105.34230591 -11.62670898 103.65112305 C-12.39428439 99.55257919 -13.16461941 95.45455805 -13.93579102 91.35668945 C-14.26922749 89.5827425 -14.60191454 87.80865452 -14.93383789 86.03442383 C-15.41095363 83.48481431 -15.8907586 80.93572345 -16.37109375 78.38671875 C-16.51904892 77.59287277 -16.66700409 76.79902679 -16.81944275 75.98112488 C-17.40051327 72.90903593 -18.00995829 69.97012514 -19 67 C-19.79172607 67.15146484 -20.58345215 67.30292969 -21.39916992 67.45898438 C-24.99439953 68.14404095 -28.59091618 68.82209067 -32.1875 69.5 C-34.05631836 69.85771484 -34.05631836 69.85771484 -35.96289062 70.22265625 C-37.7659668 70.56103516 -37.7659668 70.56103516 -39.60546875 70.90625 C-41.26292114 71.22045898 -41.26292114 71.22045898 -42.95385742 71.54101562 C-45.6982428 71.95453206 -48.23175475 72.09009749 -51 72 C-50.79503906 72.81082031 -50.59007812 73.62164062 -50.37890625 74.45703125 C-48.62913753 81.6486644 -47.42946885 88.61017396 -47 96 C-52.26620848 94.50128344 -56.59199752 92.10310509 -61.25 89.3125 C-61.94996094 88.90322266 -62.64992187 88.49394531 -63.37109375 88.07226562 C-64.82142688 87.21236866 -66.26062822 86.33345952 -67.68896484 85.4375 C-69.32454144 84.42014578 -70.99018078 83.45040176 -72.67431641 82.515625 C-77.64209642 79.52504846 -80.45229133 77.32312654 -81.9296875 71.5859375 C-82.28745556 69.52256974 -82.60080363 67.4511264 -82.875 65.375 C-83.24072942 63.14580773 -83.6066176 60.91664151 -83.97265625 58.6875 C-84.14039551 57.57117188 -84.30813477 56.45484375 -84.48095703 55.3046875 C-85.26760189 50.29620922 -86.30156734 45.34206701 -87.3125 40.375 C-88.44359993 34.81490711 -89.20564508 29.68189727 -89 24 C-85.08820439 22.32173077 -81.16982376 20.65942196 -77.25 19 C-76.13882813 18.52304687 -75.02765625 18.04609375 -73.8828125 17.5546875 C-72.81289062 17.10351562 -71.74296875 16.65234375 -70.640625 16.1875 C-69.16384277 15.55908203 -69.16384277 15.55908203 -67.65722656 14.91796875 C-65 14 -65 14 -61 14 C-60.1592979 18.39445722 -59.3287265 22.79076996 -58.5 27.1875 C-58.26152344 28.43337891 -58.02304688 29.67925781 -57.77734375 30.96289062 C-57.55175781 32.16494141 -57.32617188 33.36699219 -57.09375 34.60546875 C-56.88427734 35.71043701 -56.67480469 36.81540527 -56.45898438 37.95385742 C-56.04546794 40.6982428 -55.90990251 43.23175475 -56 46 C-55.28457031 45.85377197 -54.56914062 45.70754395 -53.83203125 45.55688477 C-50.55531202 44.88898299 -47.27767234 44.22570795 -44 43.5625 C-42.87464844 43.33240234 -41.74929687 43.10230469 -40.58984375 42.86523438 C-34.73518856 41.68403201 -28.93983965 40.63329173 -23 40 C-23.14622803 39.30028076 -23.29245605 38.60056152 -23.44311523 37.87963867 C-24.11423907 34.65020464 -24.77591046 31.41890016 -25.4375 28.1875 C-25.66759766 27.08728516 -25.89769531 25.98707031 -26.13476562 24.85351562 C-27.54817236 17.90938688 -28.53161225 11.07203283 -29 4 C-24.72973398 3.32966495 -20.45869951 2.66435894 -16.1875 2 C-14.97255859 1.80921875 -13.75761719 1.6184375 -12.50585938 1.421875 C-11.34248047 1.24140625 -10.17910156 1.0609375 -8.98046875 0.875 C-7.90692139 0.70742187 -6.83337402 0.53984375 -5.72729492 0.3671875 C-3 0 -3 0 0 0 Z " fill="#000000" transform="translate(273,242)"/>
<path d="M0 0 C0.82693359 0.00451172 1.65386719 0.00902344 2.50585938 0.01367188 C4.52477146 0.02534189 6.54364574 0.04327282 8.5625 0.0625 C7.77875 1.0525 6.995 2.0425 6.1875 3.0625 C-13.29362134 29.15985123 -26.10486309 60.27963207 -27.4375 93.0625 C-39.16944408 88.2694017 -48.45410679 73.55514691 -53.62109375 62.5390625 C-57.81874019 51.7336377 -57.36942074 40.92738345 -53.4375 30.0625 C-47.47452786 17.52022785 -39.30352643 8.74612937 -26.15234375 3.8359375 C-17.34745846 1.02565264 -9.201693 -0.09639163 0 0 Z " fill="#000000" transform="translate(136.4375,130.9375)"/>
<path d="" fill="#000000" transform="translate(0,0)"/>
</svg>
